<svg width="18" height="18" viewBox="0 0 18 18" fill="none" xmlns="http://www.w3.org/2000/svg">
<path d="M4.68142 10.0718C3.68124 10.2456 2.83573 10.9122 2.45057 11.8514C1.96644 13.0321 1.34831 14.5951 1.15893 15.3227C0.651703 17.2714 0.282886 17.7104 2.17339 16.7842C4.06389 15.8581 13.2161 11.2703 15.258 10.2507C17.9198 8.92163 17.9553 9.02547 15.1152 7.61431C12.9521 6.53952 3.90719 2.07137 2.17339 1.19405C0.439594 0.316733 0.651703 0.706858 1.15893 2.65563C1.3509 3.39316 1.97888 4.97009 2.46868 6.15571C2.8549 7.09059 3.69785 7.75352 4.69434 7.92724L10.3839 8.9191C10.4335 8.92804 10.4657 8.9715 10.4558 9.01618C10.4486 9.04884 10.4202 9.07437 10.3839 9.0809L4.68142 10.0718Z" fill="#B5BBC6"/>
</svg>
