<svg width="24" height="24" viewBox="0 0 24 24" fill="none" xmlns="http://www.w3.org/2000/svg">
<path fill-rule="evenodd" clip-rule="evenodd" d="M17.3203 19.8233C17.5887 20.0057 17.9345 20.0513 18.2428 19.9393C18.5512 19.8265 18.7778 19.5737 18.8462 19.2673C19.5703 16.0001 21.327 7.73052 21.9862 4.75852C22.0362 4.53452 21.9528 4.30172 21.7695 4.15212C21.5862 4.00252 21.332 3.95932 21.1053 4.04012C17.6112 5.28172 6.85033 9.15772 2.452 10.7201C2.17283 10.8193 1.99116 11.0769 2.00033 11.3593C2.01033 11.6425 2.20866 11.8881 2.4945 11.9705C4.467 12.5369 7.05616 13.3249 7.05616 13.3249C7.05616 13.3249 8.26616 16.8329 8.897 18.6169C8.97616 18.8409 9.15866 19.0169 9.3995 19.0777C9.6395 19.1377 9.89616 19.0745 10.0753 18.9121C11.0887 17.9937 12.6553 16.5737 12.6553 16.5737C12.6553 16.5737 15.632 18.6689 17.3203 19.8233ZM8.14533 12.8817L9.5445 17.3121L9.85533 14.5065C9.85533 14.5065 15.2612 9.82573 18.3428 7.15772C18.4328 7.07932 18.4453 6.94812 18.3703 6.85612C18.2962 6.76412 18.1595 6.74252 18.057 6.80492C14.4853 8.99452 8.14533 12.8817 8.14533 12.8817Z" fill="#C9CED6"/>
</svg>
