<svg width="24" height="24" viewBox="0 0 24 24" fill="none" xmlns="http://www.w3.org/2000/svg">
<path d="M12.9808 16.9582C12.9808 16.9582 13.3418 16.9231 13.5267 16.749C13.6959 16.5896 13.69 16.2886 13.69 16.2886C13.69 16.2886 13.6675 14.8835 14.4119 14.676C15.1456 14.472 16.0876 16.0349 17.0873 16.6358C17.8425 17.0902 18.4157 16.9908 18.4157 16.9908L21.0872 16.9582C21.0872 16.9582 22.4841 16.8828 21.8218 15.92C21.767 15.8411 21.4354 15.2076 19.8361 13.9061C18.1604 12.5439 18.3854 12.7642 20.4024 10.4074C21.6311 8.97227 22.1221 8.09609 21.9685 7.72144C21.8228 7.36308 20.9189 7.45824 20.9189 7.45824L17.9119 7.47453C17.9119 7.47453 17.6889 7.44795 17.5236 7.53454C17.3622 7.61942 17.2575 7.81746 17.2575 7.81746C17.2575 7.81746 16.7821 8.92769 16.1473 9.87245C14.8081 11.8649 14.273 11.9703 14.0539 11.8469C13.5443 11.5579 13.6714 10.6878 13.6714 10.0696C13.6714 8.13809 14.006 7.33307 13.0209 7.12474C12.6942 7.0553 12.4536 7.00986 11.6172 7.00215C10.5441 6.99271 9.63636 7.00557 9.12183 7.22591C8.77946 7.37251 8.51534 7.7 8.67675 7.71886C8.87532 7.74201 9.32529 7.82517 9.56397 8.1098C9.87211 8.47759 9.86135 9.30233 9.86135 9.30233C9.86135 9.30233 10.0384 11.5759 9.44757 11.858C9.04259 12.0518 8.48698 11.6565 7.29259 9.84845C6.68122 8.92254 6.21951 7.8989 6.21951 7.8989C6.21951 7.8989 6.13049 7.70772 5.97104 7.60484C5.77834 7.48053 5.50933 7.44195 5.50933 7.44195L2.65201 7.45824C2.65201 7.45824 2.22258 7.46853 2.06509 7.63228C1.92521 7.77716 2.05433 8.07808 2.05433 8.07808C2.05433 8.07808 4.29147 12.6656 6.82501 14.9778C9.14824 17.0971 11.7855 16.9582 11.7855 16.9582H12.9808Z" fill="#C9CED6"/>
</svg>
