<svg width="24" height="24" viewBox="0 0 24 24" fill="none" xmlns="http://www.w3.org/2000/svg">
<path d="M22 5.01256C21.2642 5.35423 20.4733 5.58434 19.6433 5.68806C20.4908 5.15725 21.1417 4.31614 21.4475 3.31378C20.655 3.80537 19.7767 4.16274 18.8417 4.35536C18.0942 3.52123 17.0267 3 15.8467 3C13.1975 3 11.2508 5.58521 11.8492 8.26892C8.44 8.09024 5.41667 6.38187 3.3925 3.78533C2.3175 5.71421 2.835 8.23754 4.66167 9.51533C3.99 9.49267 3.35667 9.30004 2.80417 8.97841C2.75917 10.9666 4.12167 12.8266 6.095 13.2406C5.5175 13.4045 4.885 13.4428 4.24167 13.3138C4.76333 15.0187 6.27833 16.259 8.075 16.2939C6.35 17.7085 4.17667 18.3404 2 18.072C3.81583 19.2896 5.97333 20 8.29 20C15.9083 20 20.2125 13.2703 19.9525 7.23431C20.7542 6.62854 21.45 5.87285 22 5.01256Z" fill="#C9CED6"/>
</svg>
