<svg width="20" height="20" viewBox="0 0 20 20" fill="none" xmlns="http://www.w3.org/2000/svg">
<path d="M4.89616 17.5C4.49345 17.5 4.1621 17.1722 4.21439 16.7729C4.37772 15.5255 4.95802 14.3582 5.87554 13.4594C6.9695 12.3878 8.45323 11.7857 10.0003 11.7857C11.5474 11.7857 13.0312 12.3878 14.1251 13.4594C15.0426 14.3582 15.6229 15.5255 15.7863 16.7729C15.8385 17.1722 15.5072 17.5 15.1045 17.5C14.7018 17.5 14.3818 17.1711 14.3122 16.7745C14.1601 15.9071 13.7377 15.1002 13.0939 14.4695C12.2734 13.6658 11.1606 13.2143 10.0003 13.2143C8.84 13.2143 7.72721 13.6658 6.90673 14.4695C6.26297 15.1002 5.84055 15.9071 5.68846 16.7745C5.6189 17.1711 5.29887 17.5 4.89616 17.5ZM10.0003 11.0714C7.58314 11.0714 5.62533 9.15357 5.62533 6.78571C5.62533 4.41786 7.58314 2.5 10.0003 2.5C12.4175 2.5 14.3753 4.41786 14.3753 6.78571C14.3753 9.15357 12.4175 11.0714 10.0003 11.0714ZM10.0003 9.64286C11.6118 9.64286 12.917 8.36429 12.917 6.78571C12.917 5.20714 11.6118 3.92857 10.0003 3.92857C8.38887 3.92857 7.08366 5.20714 7.08366 6.78571C7.08366 8.36429 8.38887 9.64286 10.0003 9.64286Z" fill="#F57C00"/>
</svg>
